<?xml version="1.0" encoding="UTF-8" standalone="no"?>
<!-- Created with Inkscape (http://www.inkscape.org/) -->

<svg
   version="1.1"
   id="svg1"
   width="132.12402"
   height="60.121399"
   viewBox="0 0 132.12402 60.121399"
   xmlns="http://www.w3.org/2000/svg"
   xmlns:svg="http://www.w3.org/2000/svg">
  <defs
     id="defs1">
    <clipPath
       clipPathUnits="userSpaceOnUse"
       id="clipPath13">
      <path
         d="M 0,500 H 750 V 0 H 0 Z"
         transform="translate(-628.86722,-49.047899)"
         id="path13" />
    </clipPath>
    <clipPath
       clipPathUnits="userSpaceOnUse"
       id="clipPath15">
      <path
         d="M 0,500 H 750 V 0 H 0 Z"
         transform="translate(-614.51861,-78.678704)"
         id="path15" />
    </clipPath>
  </defs>
  <g
     id="layer-MC1"
     transform="translate(-654.40639,-579.45105)">
    <path
       id="path12"
       d="m 0,0 h -57.469 c -10.646,0 -19.309,8.659 -19.309,19.306 0,10.497 8.423,19.066 18.866,19.303 3.72,12.898 15.47,21.803 28.984,21.803 11.204,0 21.294,-6.072 26.584,-15.919 0.839,0.093 1.601,0.138 2.341,0.138 12.308,0 22.318,-10.008 22.318,-22.31 C 22.321,10.011 12.308,0 0,0"
       style="fill:#800080;fill-opacity:1;fill-rule:nonzero;stroke:none"
       transform="matrix(1.3333333,0,0,-0.99518741,756.77706,639.57229)"
       clip-path="url(#clipPath13)" />
    <path
       id="path14"
       d="m 0,0 c 3.145,1.874 7.299,1.47 10.465,-0.369 3.166,-1.838 5.45,-4.912 7.082,-8.189 0.821,-1.651 1.506,-3.392 1.769,-5.217 0.528,-3.664 -0.727,-7.469 -3.024,-10.372 -2.297,-2.905 -7.27,-4.273 -10.769,-5.484 h 10.689 c 0,0 14.672,0.58 19.361,15.427 4.69,14.846 -6.731,29.925 -23.568,29.066 0,0 -12.561,23.995 -40.086,12.738 0,0 -8.435,-2.574 -15.392,-16.436 V 8.361 c 9.004,6.104 20.839,7.823 31.206,4.533 2.849,-0.905 5.626,-2.191 7.86,-4.177 2.234,-1.987 3.887,-4.736 4.132,-7.714"
       style="fill:#660066;fill-opacity:1;fill-rule:nonzero;stroke:none"
       transform="matrix(1.3333333,0,0,-0.99518741,737.64559,610.08408)"
       clip-path="url(#clipPath15)" />
  </g>
</svg>
