<?xml version="1.0" encoding="UTF-8" standalone="no"?>
<!-- Created with Inkscape (http://www.inkscape.org/) -->

<svg
   version="1.1"
   id="svg1"
   width="250.46028"
   height="47.756195"
   viewBox="0 0 250.46028 47.756195"
   xmlns="http://www.w3.org/2000/svg"
   xmlns:svg="http://www.w3.org/2000/svg">
  <defs
     id="defs1">
    <clipPath
       clipPathUnits="userSpaceOnUse"
       id="clipPath35">
      <path
         d="M 0,500 H 750 V 0 H 0 Z"
         transform="translate(-223.14601,-386.66501)"
         id="path35" />
    </clipPath>
  </defs>
  <g
     id="layer-MC1"
     transform="translate(-48.446487,-126.27449)">
    <path
       id="path34"
       d="m 0,0 c -3.451,1.119 -6.338,3.116 -9.605,4.606 -2.866,1.309 -5.819,1.736 -8.895,1.706 0.502,9.528 -3.764,19.327 -14.657,19.55 -9.8,0.2 -17.91,-7.2 -21.08,-16.035 -9.428,3.736 -19.406,3.263 -27.564,-3.033 -5.301,5.788 -11.688,9.105 -19.6,10.117 -8.162,1.044 -17.998,2.252 -25.856,-0.759 -4.959,-1.9 -7.422,-5.917 -11.479,-8.941 -2.792,-2.081 -6.788,-2.727 -10.073,-3.652 -4.841,-1.366 -9.725,-2.581 -14.616,-3.75 -7.273,-1.739 -14.573,-3.365 -21.861,-5.04 -1.79,-0.413 -2.082,-2.816 -0.461,-3.682 l 0.051,-0.027 c 5.418,-0.449 10.831,-0.994 16.223,-1.476 15.96,-1.428 31.913,-2.937 47.89,-4.165 17.104,-1.315 34.24,-2.345 51.395,-2.559 14.569,-0.181 29.313,0.055 43.728,2.382 9.189,1.483 22.086,3.899 27.301,12.691 C 1.322,-1.256 0.853,-0.276 0,0"
       style="fill:#800080;fill-opacity:1;fill-rule:nonzero;stroke:none"
       transform="matrix(1.3333333,0,0,-1.1092167,297.528,154.96545)"
       clip-path="url(#clipPath35)" />
  </g>
</svg>
