<?xml version="1.0" encoding="UTF-8" standalone="no"?>
<!-- Created with Inkscape (http://www.inkscape.org/) -->

<svg
   version="1.1"
   id="svg1"
   width="214.10406"
   height="51.182465"
   viewBox="0 0 214.10406 51.182465"
   xmlns="http://www.w3.org/2000/svg"
   xmlns:svg="http://www.w3.org/2000/svg">
  <defs
     id="defs1">
    <clipPath
       clipPathUnits="userSpaceOnUse"
       id="clipPath7">
      <path
         d="M 0,500 H 750 V 0 H 0 Z"
         transform="translate(-679.98052,-254.82911)"
         id="path7" />
    </clipPath>
  </defs>
  <g
     id="layer-MC1"
     transform="translate(-737.4496,-312.81839)">
    <path
       id="path6"
       d="m 0,0 c 2.003,5.58 -1.101,12.472 -6.607,14.669 -5.506,2.198 -12.503,-0.663 -14.892,-6.088 -7.747,13.93 -25.105,22.916 -39.895,22.75 -3.129,-0.035 -6.342,0.328 -9.284,-0.743 -4.49,-1.634 -7.739,-5.757 -9.342,-10.259 -1.601,-4.501 -1.762,-9.38 -1.639,-14.157 -5.943,4.051 -13.19,6.154 -20.378,5.915 -11.237,-0.373 -22.886,-7.846 -24.683,-18.945 -0.547,-3.376 0.209,-6.888 2.153,-9.702 11.874,-17.191 120.14,-11.246 146.847,-4.806 4.399,1.06 9.327,2.84 10.931,7.071 1.302,3.434 -0.215,7.464 -2.899,9.969 -2.686,2.505 -6.318,3.73 -9.916,4.469 C 13.622,1.534 6.545,1.427 -0.185,-0.168"
       style="fill:#800080;fill-opacity:1;fill-rule:nonzero;stroke:none"
       transform="matrix(1.3333333,0,0,-0.86467451,906.64067,339.93718)"
       clip-path="url(#clipPath7)" />
  </g>
</svg>
