<?xml version="1.0" encoding="UTF-8" standalone="no"?>
<!-- Created with Inkscape (http://www.inkscape.org/) -->

<svg
   width="62.94891mm"
   height="15.309693mm"
   viewBox="0 0 62.94891 15.309693"
   version="1.1"
   id="svg1"
   xml:space="preserve"
   sodipodi:docname="LogoGrey.svg"
   inkscape:version="1.4 (e7c3feb1, 2024-10-09)"
   inkscape:export-filename="LogoBeige.svg"
   inkscape:export-xdpi="96"
   inkscape:export-ydpi="96"
   xmlns:inkscape="http://www.inkscape.org/namespaces/inkscape"
   xmlns:sodipodi="http://sodipodi.sourceforge.net/DTD/sodipodi-0.dtd"
   xmlns="http://www.w3.org/2000/svg"
   xmlns:svg="http://www.w3.org/2000/svg"><sodipodi:namedview
     id="namedview1"
     pagecolor="#505050"
     bordercolor="#eeeeee"
     borderopacity="1"
     inkscape:showpageshadow="0"
     inkscape:pageopacity="0"
     inkscape:pagecheckerboard="0"
     inkscape:deskcolor="#505050"
     inkscape:document-units="mm"
     inkscape:zoom="3.0956532"
     inkscape:cx="118.39182"
     inkscape:cy="28.426957"
     inkscape:window-width="1664"
     inkscape:window-height="981"
     inkscape:window-x="8"
     inkscape:window-y="25"
     inkscape:window-maximized="0"
     inkscape:current-layer="svg1"><inkscape:page
       x="0"
       y="0"
       width="62.94891"
       height="15.309693"
       id="page1"
       margin="0"
       bleed="0" /></sodipodi:namedview><defs
     id="defs1" /><path
     style="fill:#693a5a;fill-opacity:1;stroke:#693a5a;stroke-width:0.3;stroke-linecap:round;stroke-linejoin:bevel;stroke-dasharray:none;stroke-opacity:1;paint-order:markers fill stroke"
     d="m 4.8926572,14.418543 c 0,-0.75577 1.568384,-7.1498796 2.722286,-11.0984296 l 0.637892,-2.1828201 -2.804568,0.006 c -1.542513,0.004 -3.326298,0.1267501 -3.963967,0.2737601 -0.63766906,0.14701 -1.21972806,0.20697 -1.29346506,0.13323 -0.364664,-0.36466 1.73480106,-0.75511006 4.70182206,-0.87443006 1.81901,-0.0731 3.456119,-0.25205 3.638021,-0.39757 0.225295,-0.18024 0.330729,-0.16991 0.330729,0.0324 0,0.20443 1.092417,0.29824 3.5057278,0.30103 1.928151,0.002 3.684323,0.11947 3.902604,0.26053 C 16.535732,1.0441433 15.354497,1.1300633 12.68789,1.1327733 l -3.9787228,0.004 -0.459481,1.6536501 c -1.551903,5.58522 -2.82456,10.7681696 -2.826089,11.5093696 -9.76e-4,0.47295 -0.120836,0.8599 -0.266357,0.8599 -0.145521,0 -0.264583,-0.33375 -0.264583,-0.74167 z m 28.1119848,0.56644 c -0.76844,-0.31007 0.36284,-2.4706 1.29364,-2.4706 0.17969,0 -0.006,0.34751 -0.41314,0.77225 -2.02211,2.11062 1.45223,1.60108 3.9576,-0.58043 2.88974,-2.51618 2.53484,-3.5905696 -1.28142,-3.8791996 -5.64654,-0.42706 -5.04934,-3.20053 1.5267,-7.09014 4.24019,-2.50800006 5.6713,-2.00362006 4.30459,1.5171 -0.36635,0.94372 -0.54316,0.21731 -0.22637,-0.93001 0.57342,-2.07673006 -0.28912,-2.21825006 -3.24682,-0.53273 -6.69335,3.81437 -7.50304,6.03996 -2.36766,6.50803 2.65233,0.24175 3.18931,0.40263 3.54172,1.06112 1.03657,1.9368396 -4.78357,6.5548096 -7.08884,5.6246096 z m 18.19325,-1.34612 c 0.002,-0.25467 0.1789,-1.11787 0.39373,-1.91823 0.51722,-1.9269796 0.51701,-1.9277996 -0.38374,-1.46201 -1.22321,0.63255 -1.7753,0.52256 -1.95782,-0.3900796 -0.0873,-0.43656 -0.27665,-0.79375 -0.42074,-0.79375 -0.1441,0 -0.66881,0.35719 -1.16603,0.79375 -0.97224,0.8536396 -1.64825,1.0439396 -1.39875,0.3937596 0.13697,-0.3569396 0.0702,-0.3569396 -0.62001,0 -0.93233,0.48213 -1.64187,0.5104 -2.06978,0.0825 -0.24695,-0.24694 -0.38806,-0.24694 -0.635,0 -0.51583,0.51583 -1.00542,0.36411 -1.00542,-0.31156 0,-0.7579496 0.64843,-1.3508296 1.49575,-1.3676096 0.50641,-0.01 0.62092,0.12416 0.62092,0.72761 0,1.0102096 0.98725,1.0011696 2.0794,-0.019 0.82081,-0.76676 1.17791,-0.82177 0.91677,-0.14124 -0.19896,0.51847 0.0754,0.46333 0.96419,-0.19379 0.88527,-0.65451 1.51793,-0.52059 1.64151,0.34748 0.3645,2.5603896 3.69384,-1.39283 3.66076,-4.34674 -10e-4,-0.10914 -0.77612,-0.19844 -1.72201,-0.19844 -0.97014,0 -1.71979,-0.11533 -1.71979,-0.26458 0,-0.15094 0.78749,-0.26459 1.83331,-0.26459 1.83331,0 1.83331,0 2.25635,-1.45521 0.54009,-1.85784006 1.01273,-1.91799006 0.51974,-0.0661 -0.20338,0.76398 -0.3712,1.41883 -0.37293,1.45521 -0.002,0.0364 1.66374,0.0661 3.70103,0.0661 2.29305,0 3.70417,0.1008 3.70417,0.26459 0,0.16422 -1.45521,0.26458 -3.83646,0.26458 -2.11005,0 -3.83646,0.0534 -3.83646,0.11866 0,0.0653 -0.47826,1.95529 -1.0628,4.20006 -0.58453,2.2447796 -0.98851,4.2749796 -0.89773,4.5115596 0.11019,0.28716 0.0237,0.43014 -0.26012,0.43014 -0.23385,0 -0.42377,-0.20836 -0.42204,-0.46302 z m -8.00494,-4.4519696 c -0.26039,-0.2604 -0.72945,0.13935 -0.72945,0.62167 0,0.4038796 0.0348,0.4031596 0.44727,-0.009 0.246,-0.246 0.37298,-0.52156 0.28218,-0.61236 z m 14.08721,3.0821096 c 0,-0.28048 0.30362,-0.7488 0.67472,-1.0407 0.90906,-0.71507 0.44135,-1.6887996 -0.65378,-1.3610996 -0.37532,0.11231 -1.19199,0.3573796 -1.81482,0.5446096 -0.80388,0.24166 -1.21451,0.25834 -1.41535,0.0575 -0.36933,-0.36933 -0.0393,-1.3945196 0.44894,-1.3945196 0.20847,0 0.37904,-0.11906 0.37904,-0.26458 0,-0.14552 0.23813,-0.26458 0.52917,-0.26458 0.35278,0 0.52917,0.17639 0.52917,0.52916 0,0.77955 0.97081,0.66849 2.35491,-0.26939 1.48921,-1.0091 3.19917,-0.94553 2.17287,0.0808 -0.21621,0.21621 -0.29445,0.20519 -0.29445,-0.0415 0,-0.47237 -1.07587,-0.26369 -1.41284,0.27404 -0.52335,0.83513 0.23124,1.3401896 1.30679,0.87466 0.49489,-0.2142 1.32866,-0.57473 1.85283,-0.80116 0.60697,-0.26221 0.91677,-0.3029 0.85315,-0.11206 -0.0549,0.16481 -0.75169,0.55945 -1.54834,0.87698 -1.1748,0.4682496 -1.45459,0.6987496 -1.48087,1.2199996 -0.0634,1.25689 -2.48114,2.32083 -2.48114,1.09182 z m 1.70931,-0.37569 c 0.36697,-0.26834 0.40559,-0.40713 0.15617,-0.56128 -0.19919,-0.12311 -0.55522,0.0191 -0.89263,0.35649 -0.65732,0.65732 -0.0959,0.81343 0.73646,0.20479 z m -3.82597,-1.86008 c 0,-0.0549 -0.1786,-0.2481096 -0.39688,-0.4292696 -0.32504,-0.26976 -0.39687,-0.25168 -0.39687,0.0999 0,0.2361 0.17859,0.4292796 0.39687,0.4292796 0.21828,0 0.39688,-0.045 0.39688,-0.0999 z m -47.2158828,0.38431 c -0.156983,-0.25401 0.351249,-1.5844496 0.625528,-1.6374996 1.402543,-0.27128 1.6595658,-0.19865 1.5031038,0.42475 -0.3052758,1.2163096 1.087955,1.1992096 2.315591,-0.0284 0.691029,-0.69102 0.702897,-0.69298 0.702897,-0.11607 0,0.58683 0,0.58683 0.932758,0.0103 1.098754,-0.67907 1.713076,-0.53823 1.713076,0.39272 0,0.44303 0.146175,0.6697696 0.431791,0.6697696 0.539867,0 2.214042,-1.0166596 2.214042,-1.3444996 0,-0.13365 0.123569,-0.243 0.274598,-0.243 0.151028,0 0.240325,0.32319 0.198437,0.7182 -0.108059,1.0190096 0.635744,1.0836296 1.992804,0.17312 1.575279,-1.0569 2.586739,-1.0849 2.382949,-0.066 -0.19248,0.9624196 0.7715,1.0718796 1.86496,0.21177 0.38482,-0.3027 0.84274,-0.50268 1.01761,-0.44439 0.17486,0.0583 -0.15158,0.42501 -0.72542,0.81495 -1.0484,0.7123996 -2.33864,0.9324896 -2.63697,0.4498096 -0.10079,-0.1631 -0.35775,-0.13858 -0.69318,0.0661 -0.44125,0.2693 -0.58871,0.25038 -0.85648,-0.10991 -0.280779,-0.3778096 -0.390049,-0.3865296 -0.828199,-0.0661 -0.66732,0.48796 -1.444221,0.46714 -2.020223,-0.0541 -0.428635,-0.3879096 -0.518075,-0.3879096 -1.071893,0 -0.999174,0.69985 -1.797159,0.55062 -1.981389,-0.3705296 -0.196289,-0.98144 -0.278924,-0.98183 -1.566826,-0.007 -1.189098,0.8997196 -1.436195,0.9666896 -1.436195,0.3892396 0,-0.3727896 -0.05582,-0.3727896 -0.588038,0 -0.70202,0.49171 -1.566831,0.53242 -2.0048778,0.0944 -0.246944,-0.24694 -0.388055,-0.24694 -0.635,0 -0.378337,0.37834 -0.915143,0.41304 -1.125454,0.0727 z m 1.178371,-0.8135796 c 0.182158,-0.34037 0.188801,-0.52917 0.01862,-0.52917 -0.145521,0 -0.392024,0.23813 -0.547785,0.52917 -0.182158,0.34037 -0.188801,0.5291696 -0.01862,0.5291696 0.145521,0 0.392024,-0.2381296 0.547785,-0.5291696 z m 13.2291738,0 c 0.22603,-0.42235 0.20121,-0.52917 -0.12299,-0.52917 -0.2234,0 -0.40619,0.0498 -0.40619,0.11066 0,0.0608 -0.0723,0.29898 -0.1606,0.52916 -0.23343,0.6083296 0.35555,0.5138496 0.68978,-0.11065 z m -13.0725978,-2.1435 c 0.466154,-0.51509 0.9017558,-0.44666 0.9017558,0.14167 0,0.19654 -0.2929098,0.34818 -0.6725328,0.34818 -0.637785,0 -0.649629,-0.0253 -0.229223,-0.48985 z m 9.3684228,0.30703 c 0,-0.13693 0.119063,-0.32255 0.264584,-0.41249 0.145521,-0.0899 0.264583,0.0221 0.264583,0.24897 0,0.22687 -0.119062,0.41249 -0.264583,0.41249 -0.145521,0 -0.264584,-0.11204 -0.264584,-0.24897 z"
     id="path3"
     inkscape:export-filename="LogoViolet.svg"
     inkscape:export-xdpi="96"
     inkscape:export-ydpi="96" /></svg>
